<svg width="2824" height="2127" viewBox="0 0 2824 2127" fill="none" xmlns="http://www.w3.org/2000/svg">
<path fill-rule="evenodd" clip-rule="evenodd" d="M1011.14 231.001C1241.47 231.001 1428.16 427.534 1428.16 669.967C1428.16 912.417 1241.47 1108.95 1011.14 1108.95C780.831 1108.95 594.123 912.417 594.123 669.967C594.123 427.534 780.831 231.001 1011.14 231.001Z" fill="#471E00"/>
<path fill-rule="evenodd" clip-rule="evenodd" d="M1025.12 414.576C1209.08 414.576 1353.59 524.644 1330.54 788.442C1323.98 863.537 1390.17 823.873 1390.17 851.005C1390.17 1075.03 1220.48 1256.63 1011.14 1256.63C801.83 1256.63 632.127 1075.03 632.127 851.005C676.805 922.723 683.642 831.753 681.631 789.803C665.112 446.381 832.273 414.576 1025.12 414.576Z" fill="#FAD3A8"/>
<path d="M1083.14 910.237L1063.45 888.2L1063.98 887.656L1064.52 887.147L1065.08 886.673L1065.66 886.235L1066.25 885.832L1066.86 885.466L1067.48 885.134L1068.11 884.837L1068.75 884.578L1069.4 884.352L1070.05 884.163L1070.71 884.008L1071.38 883.89L1072.05 883.806L1072.72 883.759L1073.39 883.746L1074.07 883.77L1074.74 883.828L1075.41 883.922L1076.07 884.051L1076.73 884.215L1077.38 884.415L1078.03 884.651L1078.66 884.921L1079.29 885.227L1079.9 885.567L1080.51 885.944L1081.09 886.356L1081.67 886.803L1082.22 887.286L1082.76 887.803L1083.28 888.356L1083.77 888.937L1084.24 889.538L1084.66 890.159L1085.06 890.797L1085.43 891.452L1085.76 892.121L1086.06 892.804L1086.33 893.498L1086.56 894.204L1086.77 894.919L1086.94 895.642L1087.08 896.372L1087.19 897.107L1087.26 897.845L1087.31 898.587L1087.32 899.328L1087.3 900.071L1087.24 900.812L1087.16 901.549L1087.04 902.282L1086.89 903.01L1086.71 903.729L1086.5 904.441L1086.25 905.143L1085.98 905.834L1085.67 906.512L1085.33 907.176L1084.95 907.824L1084.55 908.456L1084.11 909.07L1083.64 909.664L1083.14 910.237ZM939.154 910.236L958.846 888.201L961.597 891.045L964.444 893.702L967.381 896.174L970.405 898.461L973.508 900.566L976.686 902.489L979.933 904.23L983.24 905.789L986.604 907.164L990.016 908.357L993.472 909.368L996.964 910.196L1000.48 910.841L1004.03 911.3L1007.58 911.576L1011.15 911.669L1014.71 911.576L1018.27 911.3L1021.81 910.841L1025.33 910.196L1028.82 909.368L1032.28 908.357L1035.69 907.164L1039.05 905.789L1042.36 904.23L1045.61 902.489L1048.79 900.566L1051.89 898.461L1054.91 896.174L1057.85 893.702L1060.7 891.045L1063.45 888.2L1083.14 910.237L1079.35 914.155L1075.42 917.824L1071.36 921.241L1067.17 924.408L1062.88 927.32L1058.49 929.978L1054 932.383L1049.44 934.532L1044.81 936.429L1040.11 938.071L1035.36 939.46L1030.57 940.595L1025.74 941.478L1020.89 942.108L1016.03 942.486L1011.15 942.613L1006.27 942.486L1001.4 942.108L996.549 941.478L991.723 940.595L986.931 939.46L982.183 938.071L977.488 936.429L972.853 934.532L968.29 932.383L963.807 929.978L959.415 927.32L955.122 924.408L950.938 921.241L946.876 917.824L942.943 914.155L939.154 910.236ZM958.846 888.201L939.154 910.236L938.653 909.663L938.184 909.069L937.747 908.455L937.342 907.823L936.969 907.174L936.628 906.511L936.318 905.833L936.041 905.142L935.796 904.44L935.582 903.728L935.402 903.009L935.253 902.281L935.136 901.548L935.051 900.811L934.998 900.07L934.977 899.327L934.988 898.585L935.032 897.844L935.108 897.106L935.215 896.371L935.354 895.641L935.527 894.918L935.73 894.204L935.966 893.497L936.234 892.803L936.536 892.12L936.867 891.452L937.232 890.797L937.629 890.158L938.058 889.538L938.52 888.937L939.014 888.356L939.533 887.803L940.072 887.286L940.628 886.804L941.201 886.356L941.788 885.945L942.39 885.569L943.005 885.227L943.63 884.921L944.266 884.651L944.912 884.416L945.564 884.216L946.223 884.052L946.888 883.922L947.557 883.829L948.227 883.771L948.901 883.747L949.573 883.76L950.245 883.807L950.914 883.891L951.581 884.009L952.242 884.164L952.897 884.353L953.545 884.579L954.185 884.839L954.814 885.135L955.433 885.467L956.04 885.833L956.633 886.236L957.211 886.674L957.774 887.148L958.319 887.657L958.846 888.201Z" fill="#C99154"/>
<path fill-rule="evenodd" clip-rule="evenodd" d="M1138.77 354.082C1285.46 418.993 1404.38 514.949 1404.38 568.41C1404.38 621.868 1285.46 612.586 1138.77 547.676C992.083 482.765 873.169 386.809 873.169 333.348C873.169 279.89 992.082 289.166 1138.77 354.082Z" fill="#471E00"/>
<path fill-rule="evenodd" clip-rule="evenodd" d="M582.756 712.966C603.703 703.054 636.841 742.202 656.75 800.399C676.669 858.604 675.828 913.82 654.866 923.724C633.912 933.635 600.788 894.488 580.879 836.292C560.946 778.078 561.801 722.871 582.756 712.966Z" fill="#FAD3A8"/>
<path fill-rule="evenodd" clip-rule="evenodd" d="M1434.49 712.966C1407.3 703.054 1371.12 742.202 1353.7 800.399C1336.28 858.604 1344.23 913.82 1371.44 923.724C1398.64 933.635 1434.8 894.488 1452.22 836.292C1469.63 778.078 1461.69 722.871 1434.49 712.966Z" fill="#FAD3A8"/>
<path fill-rule="evenodd" clip-rule="evenodd" d="M750.107 389.677C668.481 446.671 664.37 544.782 664.37 573.122C664.37 601.472 730.549 578.258 812.176 521.261C893.81 464.264 959.991 395.084 959.991 366.734C959.991 338.384 831.741 332.681 750.107 389.677Z" fill="#471E00"/>
<path fill-rule="evenodd" clip-rule="evenodd" d="M838.231 1520.47H1184.06V978.92H838.231V1520.47Z" fill="#E6B683"/>
<path fill-rule="evenodd" clip-rule="evenodd" d="M1011.14 231.001C1241.47 231.001 1428.16 427.534 1428.16 669.967C1428.16 912.417 1241.47 1108.95 1011.14 1108.95C780.831 1108.95 594.123 912.417 594.123 669.967C594.123 427.534 780.831 231.001 1011.14 231.001Z" fill="#333333"/>
<path fill-rule="evenodd" clip-rule="evenodd" d="M1330.54 788.442C1323.98 863.537 1390.17 823.873 1390.17 851.013C1390.17 1075.03 1220.47 1256.63 1011.15 1256.63C801.82 1256.63 632.131 1075.02 632.131 851.013C676.809 922.716 683.646 831.753 681.635 789.803C672.017 589.846 791.69 461.345 795.466 414.109C785.245 455.456 992.577 577.229 1200.61 579.068C1241.9 579.434 1254.04 563.836 1276.66 594.642C1304.34 632.339 1331.78 742.728 1330.54 788.442Z" fill="#FAD3A8"/>
<path fill-rule="evenodd" clip-rule="evenodd" d="M1702.28 1608.99C1622.36 1545.61 1262.33 1353.88 1184.06 1325.22C1169.57 1378.59 1086.22 1420.55 1009.43 1420.55C932.645 1420.55 852.72 1386.75 838.233 1333.37C759.953 1362.04 425.632 1545.61 345.721 1608.99C497.583 1819.53 1517.58 1819.82 1702.28 1608.99L1702.28 1608.99Z" fill="#0288D1"/>
<path fill-rule="evenodd" clip-rule="evenodd" d="M1430.43 712.966C1403.22 703.054 1367.06 742.202 1349.64 800.399C1332.23 858.604 1340.16 913.82 1367.36 923.724C1394.57 933.635 1430.74 894.488 1448.15 836.292C1465.57 778.078 1457.64 722.871 1430.43 712.966Z" fill="#FAD3A8"/>
<path fill-rule="evenodd" clip-rule="evenodd" d="M591.872 712.966C619.077 703.054 655.239 742.202 672.659 800.399C690.08 858.604 682.145 913.82 654.939 923.731C627.741 933.635 591.565 894.488 574.159 836.292C556.74 778.085 564.673 722.871 591.872 712.966Z" fill="#FAD3A8"/>
<path d="M1406.88 1793L1651.49 319.545H2713.42L2658.74 641.864H1996.84L1956.55 895.114H2563.77L2509.09 1217.43H1901.87L1861.58 1470.68H2520.6L2465.92 1793H1406.88Z" fill="white"/>
</svg>
